<?xml version="1.0" encoding="UTF-8" standalone="no"?>
<svg
   xmlns:dc="http://purl.org/dc/elements/1.1/"
   xmlns:cc="http://creativecommons.org/ns#"
   xmlns:rdf="http://www.w3.org/1999/02/22-rdf-syntax-ns#"
   xmlns:svg="http://www.w3.org/2000/svg"
   xmlns="http://www.w3.org/2000/svg"
   xmlns:sodipodi="http://sodipodi.sourceforge.net/DTD/sodipodi-0.dtd"
   xmlns:inkscape="http://www.inkscape.org/namespaces/inkscape"
   inkscape:version="1.0 (4035a4fb49, 2020-05-01)"
   sodipodi:docname="fish.svg"
   id="svg8"
   version="1.1"
   viewBox="0 0 132.29167 52.916668"
   height="200"
   width="500">
  <defs
     id="defs2" />
  <sodipodi:namedview
     units="px"
     inkscape:window-maximized="0"
     inkscape:window-y="14"
     inkscape:window-x="749"
     inkscape:window-height="1366"
     inkscape:window-width="1405"
     showgrid="false"
     inkscape:document-rotation="0"
     inkscape:current-layer="layer1"
     inkscape:document-units="mm"
     inkscape:cy="271.21364"
     inkscape:cx="227.20686"
     inkscape:zoom="1.4"
     inkscape:pageshadow="2"
     inkscape:pageopacity="0.0"
     borderopacity="1.0"
     bordercolor="#666666"
     pagecolor="#ffffff"
     id="base" />
  <metadata
     id="metadata5">
    <rdf:RDF>
      <cc:Work
         rdf:about="">
        <dc:format>image/svg+xml</dc:format>
        <dc:type
           rdf:resource="http://purl.org/dc/dcmitype/StillImage" />
        <dc:title></dc:title>
      </cc:Work>
    </rdf:RDF>
  </metadata>
  <g
     id="layer1"
     inkscape:groupmode="layer"
     inkscape:label="Layer 1">
    <ellipse
       ry="26.458334"
       rx="66.145836"
       cy="26.458334"
       cx="66.145836"
       id="path12"
       style="fill:#ff6600;stroke-width:0.132291" />
    <path
       transform="scale(0.26458333)"
       id="path905"
       d="m 235.38789,199.30591 c -1.4366,-0.44948 -0.5181,-0.97539 5.71428,-3.2718 4.08432,-1.50493 12.08674,-4.69393 17.78317,-7.08666 43.55896,-18.29652 59.79584,-35.60356 47.01937,-50.11839 -2.45637,-2.79058 -4.86975,-4.30015 -13.74935,-8.60016 -18.95184,-9.17758 -33.98494,-13.91489 -44.18582,-13.92407 -5.99269,-0.006 -9.32453,1.00838 -11.5616,3.51785 -1.16379,1.3055 -1.47906,3.0167 -1.83031,9.93434 -0.3774,7.43276 -0.65413,8.77937 -2.50179,12.17411 -6.68182,12.27672 -26.84205,22.64983 -54.18593,27.88049 -30.97346,5.92496 -59.29344,1.24394 -76.54178,-12.65162 -9.341673,-7.52582 -9.891344,-12.80532 -1.762094,-16.92472 7.769904,-3.9373 20.632534,-6.23583 41.799304,-7.46945 20.72635,-1.20794 26.83546,-4.19574 21.51283,-10.52133 -4.95021,-5.88299 -35.75838,-18.79352 -51.86997,-21.73674 -7.37296,-1.346861 -20.136057,-1.022361 -26.531093,0.67456 -19.456519,5.16279 -33.367914,20.31101 -41.321369,44.99515 l -2.607295,8.09193 -4.948693,-3.37053 C 20.205286,140.40016 9.1755448,128.58393 4.1070044,117.13909 -2.7403192,101.67773 0.12532555,85.089542 12.28759,69.784615 c 3.716188,-4.67643 13.469078,-14.244719 14.44498,-14.171566 0.201882,0.01514 1.010199,1.059776 1.79626,2.321429 2.035125,3.266439 8.607991,5.326066 19.829425,6.213609 4.807755,0.380263 13.080659,1.038706 18.384231,1.463208 36.271364,2.903185 62.497414,2.326923 85.545324,-1.879682 24.74042,-4.515513 43.6471,-14.445338 46.66158,-24.506736 2.2727,-7.585595 -5.3294,-15.10106 -22.03664,-21.785507 -6.67264,-2.669675 -17.00195,-5.978605 -23.74169,-7.6055018 l -3.92857,-0.9483122 5.35714,-0.9383064 c 7.56584,-1.325161 30.96846,-4.3053864 40.71428,-5.1847927 25.10043,-2.26491575 64.94043,-2.90773485 89.4919,-1.4439532 16.56482,0.98761 38.29234,3.2027951 52.36603,5.3388715 12.81488,1.945018 29.18588,5.0346248 30.28872,5.7162198 0.39078,0.241509 0.7105,1.170654 0.7105,2.064767 0,0.894113 1.65501,4.812644 3.6778,8.707845 5.49022,10.572264 4.92918,15.205525 -2.72725,22.5227 -5.14901,4.920855 -10.90509,8.50684 -27.61593,17.204474 -21.71027,11.299732 -26.19177,14.803761 -26.19177,20.479018 0,4.2877 5.00135,8.019786 16.35938,12.207621 20.79925,7.66893 46.80114,11.23001 63.04745,8.63465 28.24647,-4.512392 46.76771,-24.199614 52.9672,-56.301678 l 1.55455,-8.049685 7.85714,4.71259 c 21.09768,12.654059 34.83769,26.972716 40.22009,41.913945 2.55889,7.103328 2.70672,18.427798 0.33812,25.901408 -5.80503,18.31641 -25.39776,36.43058 -54.84393,50.70513 -39.07399,18.9418 -92.5787,31.24988 -153.57142,35.32715 -14.2287,0.95117 -51.69235,1.5789 -53.8546,0.90238 z M 306.14394,45.291356 c 10.96315,-2.109346 16.60215,-5.322872 20.72378,-11.809951 1.43755,-2.262571 2.01762,-4.09127 2.01762,-6.360597 0,-2.774709 -0.35995,-3.527458 -2.79403,-5.842936 -1.53671,-1.461842 -4.34921,-3.216726 -6.25,-3.89974 -4.76867,-1.71354 -16.98178,-2.15521 -31.12326,-1.125529 -20.40925,1.486056 -33.81189,3.811764 -40.03831,6.94769 -6.92323,3.486869 -5.99968,7.394259 3.06645,12.973598 6.46286,3.977279 16.35062,7.512105 25.13405,8.985302 7.90895,1.326527 22.7087,1.393367 29.2637,0.132163 z"
       style="fill:#ff9524;fill-opacity:1;stroke-width:0.714286" />
  </g>
</svg>
